# xmcd
#
# Track frame offsets: 
#        150
#        18568
#        27113
#        36892
#        46036
#        92143
#        100025
#        107850
#        123928
#        149422
#        155092
#        226134
#        245855
#        270542
#
# Disc length: 3847 seconds
#
# Revision: 0
# Processed by: cddbd v1.5.2PL0 Copyright (c) Steve Scherf et al.
# Submitted via: ExactAudioCopy v0.99pb5
#
DISCID=b70f050e
DTITLE=Schneider, Helge - The Best Of Helge Vol. 2
DYEAR=2000
DGENRE=A Cappella
TTITLE0=Philosophie
TTITLE1=Wurstfachverkäuferin
TTITLE2=Die Lindenwirtin
TTITLE3=Is doch albern
TTITLE4=Das alte Reinhold-Helge Spiel
TTITLE5=Meine Katze
TTITLE6=Lecker Tee
TTITLE7=Nächstes Lied
TTITLE8=Allein in der Bar
TTITLE9=Ich will mich trennen
TTITLE10=Schwedenurlaub
TTITLE11=Jailhouse Rock
TTITLE12=Beethoven
TTITLE13=Arbeitsamt
EXTD=
EXTT0=
EXTT1=
EXTT2=
EXTT3=
EXTT4=
EXTT5=
EXTT6=
EXTT7=
EXTT8=
EXTT9=
EXTT10=
EXTT11=
EXTT12=
EXTT13=
PLAYORDER=
